<?xml version="1.0" standalone="no"?>
<!DOCTYPE svg PUBLIC "-//W3C//DTD SVG 20010904//EN"
 "http://www.w3.org/TR/2001/REC-SVG-20010904/DTD/svg10.dtd">
<svg version="1.0" xmlns="http://www.w3.org/2000/svg" viewBox="0 0 64 64"
 preserveAspectRatio="xMidYMid meet">

<g transform="translate(0.000000,456.000000) scale(0.100000,-0.100000)"
fill="#000000" stroke="none">
<path d="M2570 4847 l0 -95 -27 -7 c-16 -3 -38 -16 -50 -27 -23 -21 -23 -25
-23 -275 l0 -253 -24 -6 c-14 -3 -29 -3 -35 0 -6 4 -11 -9 -13 -31 -3 -33 -7
-38 -30 -41 -25 -3 -28 -7 -28 -43 0 -37 -2 -39 -30 -39 -30 0 -30 -1 -31 -57
-1 -32 -1 -64 0 -71 1 -8 -7 -16 -18 -19 -20 -5 -21 -12 -21 -193 0 -179 -1
-188 -20 -193 -20 -5 -20 -14 -20 -975 0 -956 0 -969 -20 -987 -17 -15 -20
-31 -20 -92 l0 -73 -35 0 -35 0 0 545 0 545 -145 0 -145 0 0 -583 c0 -321 -3
-587 -7 -591 -4 -3 -42 28 -85 71 l-78 78 0 470 1 470 -43 5 c-41 5 -43 6 -46
42 l-3 37 -112 3 -112 3 -3 278 -2 278 -98 -3 -97 -3 -5 -570 -5 -570 -95 0
-95 0 -3 483 -2 482 -120 0 -120 0 0 -735 0 -735 -35 0 c-35 0 -35 0 -35 45
l0 46 -52 -3 -53 -3 -2 89 c-3 106 -5 116 -32 109 -11 -3 -32 -2 -46 1 -19 5
-25 13 -25 35 0 16 -6 31 -15 35 -13 5 -15 51 -15 331 l0 325 -167 -2 -168 -3
-3 -297 c-1 -187 -6 -298 -12 -298 -7 0 -10 -311 -10 -885 l0 -885 2018 0
c1110 0 2256 3 2545 7 l527 6 0 914 0 913 -40 0 -40 0 0 -46 0 -45 -52 3 c-51
3 -53 4 -53 33 -1 29 -3 30 -48 33 l-47 3 0 -180 0 -181 -60 0 -59 0 -3 -107
-3 -108 -37 -3 -38 -3 0 -115 0 -115 -32 3 -33 3 -5 195 c-5 194 -5 195 -34
245 l-30 50 -30 -65 c-29 -60 -31 -75 -36 -205 l-5 -140 -27 -3 -28 -3 0 485
0 486 -175 0 -175 0 0 -76 c0 -67 -2 -76 -20 -81 -18 -5 -20 -15 -22 -167 l-3
-161 -65 0 -65 0 -3 232 -2 232 -113 3 -112 3 -3 188 -2 188 -143 -3 -142 -3
-3 -92 -3 -93 -139 0 -140 0 0 -365 c0 -310 -2 -365 -15 -372 -11 -7 -15 -39
-17 -157 -2 -109 -6 -150 -15 -154 -10 -3 -13 231 -13 1147 l0 1151 -25 0 -25
0 0 195 0 195 -31 0 -31 0 4 75 c3 73 3 74 -22 77 -20 2 -26 9 -28 36 -3 28
-7 32 -33 32 -27 0 -29 2 -29 40 0 36 -2 40 -25 40 -18 0 -25 5 -25 19 0 10
-7 21 -15 25 -13 5 -15 41 -15 244 0 256 0 257 -52 275 -15 5 -18 20 -18 96 0
49 -4 93 -10 96 -6 4 -10 -28 -10 -88z"/>
</g>
</svg>
