<?xml version="1.0" standalone="no"?>
<!DOCTYPE svg PUBLIC "-//W3C//DTD SVG 20010904//EN"
 "http://www.w3.org/TR/2001/REC-SVG-20010904/DTD/svg10.dtd">
<svg version="1.0" xmlns="http://www.w3.org/2000/svg"
 viewBox="0 0 512 512"
 preserveAspectRatio="xMidYMid meet">

<g transform="translate(0.000000,2340.000000) scale(0.100000,-0.100000)"
fill="#000000" stroke="none">
<path d="M5420 14231 l0 -99 -35 -6 c-22 -4 -42 -17 -55 -35 -19 -28 -20 -43
-20 -294 l0 -266 -37 -3 c-36 -3 -38 -5 -43 -43 -4 -35 -9 -40 -32 -43 -25 -3
-28 -7 -28 -42 0 -36 -2 -39 -32 -42 l-33 -3 0 -70 c0 -62 -2 -71 -20 -75 -19
-6 -20 -16 -23 -209 -2 -193 -3 -203 -22 -208 -20 -5 -20 -17 -20 -1043 0
-1024 0 -1037 -20 -1055 -17 -15 -20 -31 -20 -97 l0 -78 -35 0 -35 0 0 585 0
586 -157 -3 -158 -3 -2 -615 c-2 -338 -3 -622 -3 -630 0 -8 -36 21 -80 65
l-80 80 0 507 0 507 -47 3 -48 3 -3 42 -3 42 -122 3 -122 3 -3 293 -2 293
-108 -3 -107 -3 -3 -607 -2 -608 -100 0 -100 0 0 514 c0 328 -4 516 -10 518
-5 2 -66 2 -135 0 l-125 -3 0 -785 0 -784 -35 0 -35 0 0 51 0 50 -52 -3 -53
-3 -2 35 c-2 19 -6 68 -9 108 l-6 72 -49 0 -49 0 0 34 c0 21 -6 36 -15 40 -13
4 -15 56 -17 348 l-3 343 -180 0 -180 0 -3 -317 c-1 -201 -6 -318 -12 -318 -7
0 -10 -331 -10 -945 l0 -945 2720 0 2720 0 0 980 0 980 -50 0 -50 0 0 -46 0
-45 -52 3 c-51 3 -52 4 -53 33 0 29 -2 30 -52 33 l-53 3 0 -190 0 -191 -65 0
-64 0 -3 -112 -3 -113 -37 -3 -37 -3 -3 -122 -3 -122 -30 0 -30 0 -5 200 c-5
197 -5 201 -35 258 -16 31 -33 57 -37 57 -5 0 -24 -33 -44 -72 -35 -72 -35
-75 -37 -213 l-2 -140 -27 -3 -28 -3 0 515 0 516 -190 0 -190 0 0 -81 c0 -72
-2 -81 -20 -86 -11 -3 -20 -10 -20 -17 -1 -6 -2 -83 -3 -171 l-2 -160 -67 -3
-68 -3 0 250 0 250 -122 3 -123 3 -3 198 -2 197 -155 0 -155 0 0 -100 0 -100
-150 0 -150 0 0 -389 c0 -333 -2 -390 -15 -395 -12 -4 -15 -35 -17 -167 -2
-119 -6 -163 -15 -167 -10 -3 -13 247 -13 1227 l0 1231 -25 0 -25 0 0 205 0
205 -30 0 -30 0 0 79 c0 79 0 80 -27 83 -23 2 -29 9 -33 38 -4 29 -10 36 -32
38 -24 3 -27 8 -30 45 -3 40 -4 42 -32 39 -22 -3 -28 0 -23 11 3 8 -3 23 -14
33 -18 16 -19 33 -19 263 0 267 -3 282 -55 295 -25 6 -25 8 -25 106 0 60 -4
100 -10 100 -6 0 -10 -40 -10 -99z"/>
</g>
</svg>
